<svg width="263" height="24" viewBox="0 0 263 24" fill="none" xmlns="http://www.w3.org/2000/svg">
<path d="M31.6435 21V2.09091H35.6413V9.89276H43.7571V2.09091H47.7457V21H43.7571V13.1889H35.6413V21H31.6435ZM51.9339 2.09091H56.4119L60.7237 10.2344H60.9084L65.2202 2.09091H69.6982L62.8011 14.3153V21H58.831V14.3153L51.9339 2.09091ZM73.8817 21V2.09091H81.342C82.7762 2.09091 83.998 2.36482 85.0075 2.91264C86.0169 3.45431 86.7863 4.20833 87.3157 5.17471C87.8512 6.13494 88.119 7.2429 88.119 8.49858C88.119 9.75426 87.8481 10.8622 87.3065 11.8224C86.7648 12.7827 85.98 13.5305 84.9521 14.0661C83.9303 14.6016 82.6931 14.8693 81.2404 14.8693H76.4854V11.6655H80.5941C81.3635 11.6655 81.9975 11.5331 82.4961 11.2685C83.0008 10.9976 83.3763 10.6252 83.6225 10.1513C83.8749 9.67116 84.0011 9.12026 84.0011 8.49858C84.0011 7.87074 83.8749 7.32292 83.6225 6.85511C83.3763 6.38115 83.0008 6.01491 82.4961 5.75639C81.9914 5.49171 81.3512 5.35938 80.5756 5.35938H77.8796V21H73.8817ZM92.7157 21V2.09091H105.457V5.38707H96.7136V9.89276H104.802V13.1889H96.7136V17.7038H105.494V21H92.7157ZM110.636 21V2.09091H118.096C119.524 2.09091 120.743 2.34635 121.752 2.85724C122.768 3.36198 123.54 4.07907 124.07 5.00852C124.605 5.93182 124.873 7.01823 124.873 8.26776C124.873 9.52344 124.602 10.6037 124.06 11.5085C123.519 12.4072 122.734 13.0966 121.706 13.5767C120.684 14.0568 119.447 14.2969 117.994 14.2969H112.999V11.0838H117.348C118.111 11.0838 118.745 10.9792 119.25 10.7699C119.755 10.5606 120.13 10.2467 120.376 9.82812C120.629 9.40956 120.755 8.88944 120.755 8.26776C120.755 7.63991 120.629 7.11056 120.376 6.67969C120.13 6.24882 119.752 5.92258 119.241 5.70099C118.736 5.47325 118.099 5.35938 117.33 5.35938H114.634V21H110.636ZM120.847 12.3949L125.547 21H121.134L116.536 12.3949H120.847ZM129.698 21V2.09091H142.44V5.38707H133.696V9.89276H141.784V13.1889H133.696V17.7038H142.477V21H129.698ZM151.367 2.09091L155.18 8.53551H155.328L159.159 2.09091H163.674L157.904 11.5455L163.803 21H159.205L155.328 14.5462H155.18L151.302 21H146.722L152.641 11.5455L146.833 2.09091H151.367ZM168.204 21V2.09091H180.945V5.38707H172.202V9.89276H180.29V13.1889H172.202V17.7038H180.982V21H168.204ZM202.808 8.71094H198.764C198.69 8.18774 198.539 7.72301 198.311 7.31676C198.084 6.90436 197.791 6.5535 197.434 6.2642C197.077 5.9749 196.665 5.75331 196.197 5.59943C195.735 5.44555 195.234 5.36861 194.692 5.36861C193.713 5.36861 192.861 5.61174 192.135 6.09801C191.408 6.57812 190.845 7.27983 190.445 8.20312C190.045 9.12026 189.845 10.2344 189.845 11.5455C189.845 12.8935 190.045 14.026 190.445 14.9432C190.851 15.8603 191.417 16.5528 192.144 17.0206C192.87 17.4884 193.71 17.7223 194.664 17.7223C195.2 17.7223 195.695 17.6515 196.151 17.5099C196.613 17.3684 197.022 17.1622 197.379 16.8913C197.736 16.6143 198.031 16.2789 198.265 15.8849C198.505 15.491 198.672 15.0417 198.764 14.5369L202.808 14.5554C202.703 15.4233 202.442 16.2604 202.023 17.0668C201.611 17.867 201.054 18.584 200.352 19.218C199.656 19.8459 198.825 20.3445 197.859 20.7138C196.899 21.0769 195.812 21.2585 194.6 21.2585C192.913 21.2585 191.405 20.8769 190.076 20.1136C188.752 19.3504 187.706 18.2455 186.936 16.799C186.173 15.3525 185.792 13.6013 185.792 11.5455C185.792 9.48343 186.179 7.72917 186.955 6.28267C187.73 4.83617 188.783 3.73437 190.113 2.97727C191.442 2.21401 192.938 1.83239 194.6 1.83239C195.695 1.83239 196.711 1.98627 197.647 2.29403C198.588 2.6018 199.422 3.05114 200.149 3.64204C200.875 4.2268 201.466 4.94389 201.922 5.79332C202.383 6.64276 202.679 7.61529 202.808 8.71094ZM219.354 2.09091H223.352V14.3707C223.352 15.7495 223.023 16.956 222.364 17.9901C221.712 19.0241 220.798 19.8305 219.622 20.4091C218.446 20.9815 217.077 21.2678 215.513 21.2678C213.944 21.2678 212.571 20.9815 211.396 20.4091C210.22 19.8305 209.306 19.0241 208.653 17.9901C208.001 16.956 207.675 15.7495 207.675 14.3707V2.09091H211.673V14.0291C211.673 14.7493 211.83 15.3894 212.143 15.9496C212.464 16.5097 212.913 16.9498 213.491 17.2699C214.07 17.59 214.744 17.75 215.513 17.75C216.289 17.75 216.963 17.59 217.536 17.2699C218.114 16.9498 218.56 16.5097 218.874 15.9496C219.194 15.3894 219.354 14.7493 219.354 14.0291V2.09091ZM227.921 5.38707V2.09091H243.451V5.38707H237.662V21H233.71V5.38707H227.921ZM248.009 21V2.09091H260.75V5.38707H252.007V9.89276H260.095V13.1889H252.007V17.7038H260.787V21H248.009Z" fill="#0EBAC5"/>
<path fill-rule="evenodd" clip-rule="evenodd" d="M11.4759 2L1 14.1843H10.4283L9.3807 22.3071L19.8566 10.1228H10.4283L11.4759 2Z" fill="#0EBAC5" stroke="#0EBAC5" stroke-width="2" stroke-linecap="round" stroke-linejoin="round"/>
</svg>
